<svg version="1.1" xmlns="http://www.w3.org/2000/svg" xmlns:xlink="http://www.w3.org/1999/xlink" width="700" height="700.1875" viewBox="850,240.53125,700,700.1875"><defs><clipPath id="clip-1"><rect x="850" y="240.53125" width="700" height="700.1875" id="clip-1" fill="none" stroke="none" stroke-width="1" stroke-linecap="butt" stroke-linejoin="miter"/></clipPath><clipPath id="clip-2"><rect x="850" y="240.59375" width="700" height="700.125" id="clip-2" fill="none" stroke="none" stroke-width="1" stroke-linecap="butt" stroke-linejoin="miter"/></clipPath><clipPath id="clip-3"><rect x="850" y="240.71875" width="700" height="700" id="clip-3" fill="none" stroke="none" stroke-width="1" stroke-linecap="butt" stroke-linejoin="miter"/></clipPath><clipPath id="clip-4"><rect x="938.80095" y="374.90914" width="522.39811" height="431.61923" id="clip-4" fill="none" stroke="none" stroke-linecap="butt" stroke-linejoin="miter"/></clipPath></defs><g id="document" fill-opacity="0" fill="#ffffff" fill-rule="nonzero" stroke="#000000" stroke-width="0" stroke-linecap="butt" stroke-linejoin="miter" stroke-miterlimit="10" stroke-dasharray="" stroke-dashoffset="0" font-family="none" font-weight="none" font-size="none" text-anchor="none" style="mix-blend-mode: normal"><rect x="1234.90566" y="406.11111" transform="scale(0.75714,0.9)" width="700" height="500" id="Shape 1 1" vector-effect="non-scaling-stroke"/></g><g fill="none" fill-rule="nonzero" stroke="none" stroke-width="none" stroke-linecap="none" stroke-linejoin="none" stroke-miterlimit="10" stroke-dasharray="" stroke-dashoffset="0" font-family="none" font-weight="none" font-size="none" text-anchor="none" style="mix-blend-mode: normal"><g><g id="stage"><g id="layer1 1"><g clip-path="url(#clip-1)" id="Group 1"><g id="Group 1" fill-opacity="0" fill="#000000" stroke="#000000" stroke-width="0" stroke-linecap="butt" stroke-linejoin="miter"><rect x="850" y="171.80803" transform="scale(1,1.4)" width="700" height="500" id="Shape 1"/></g><g id="Group 1"><g id="Group 1"><g id="Group 1"><g id="Group 1"><g clip-path="url(#clip-2)" id="Group 1"><g id="Group 1" fill-opacity="0" fill="#000000" stroke="#000000" stroke-width="0" stroke-linecap="butt" stroke-linejoin="miter"><rect x="850" y="171.85267" transform="scale(1,1.4)" width="700" height="500" id="Shape 1"/></g><g id="Group 1"><g id="Group 1"><g id="Group 1"><g id="Group 1"><g clip-path="url(#clip-3)" id="Group 1"><g id="Group 1" fill-opacity="0" fill="#ffffff" stroke="#000000" stroke-width="0" stroke-linecap="butt" stroke-linejoin="miter"><rect x="850" y="171.94196" transform="scale(1,1.4)" width="700" height="500" id="Shape 1"/></g><g id="Group 1" stroke-width="1"><g id="Group 1"><g id="Group 1"><g id="Group 1"><g clip-path="url(#clip-4)" id="Group 1"><g id="Group 1"><path d="M1241.16007,375.10116l34.86863,-0.04313c6.75672,-0.0154 13.90366,-0.51685 20.59191,0.41177c5.61347,0.77937 10.99422,3.34482 15.59453,6.58146c8.57768,6.03449 15.50212,16.40744 17.23749,26.81428c1.63614,9.83557 0.77356,24.55965 0.77014,34.7878l-0.02054,64.0614l0.03765,48.19443c0.00341,8.48455 0.66404,17.48495 -0.41074,25.8723c-0.8831,7.13938 -3.55634,13.93922 -7.76646,19.77175c-6.84913,9.4231 -16.63166,14.89966 -28.03319,16.71378c-14.61218,0.3902 -29.2928,0.11295 -43.91526,0.11295l-79.77857,-0.00341l-39.80816,0.02054c-6.98057,0.01026 -14.70495,0.66745 -21.57085,-0.41417c-7.18356,-1.12954 -14.52797,-4.7783 -19.94806,-9.58398c-8.98123,-7.95813 -13.91905,-19.08377 -14.53857,-30.97714c-0.59181,-11.36524 -0.07256,-23.03236 -0.06982,-34.42637l0.00206,-68.09388l-0.01472,-41.54315c0.00241,-7.68326 -0.65205,-16.17572 0.63118,-23.76145c1.41467,-7.88317 5.02989,-15.20534 10.42877,-21.12104c7.63297,-8.36854 17.77559,-12.91784 29.0378,-13.39396z" id="Path 1" fill="#f75818" stroke="none" stroke-linecap="butt" stroke-linejoin="miter"/><path d="M1165.76174,391.51957l87.59398,0.01916l24.64115,-0.03285c4.8981,-0.00308 10.17274,-0.34947 15.01263,0.42922c4.65509,0.74925 9.33413,3.01827 12.72619,6.29119c5.89415,5.6809 7.65351,12.54442 7.75277,20.4957c0.44497,36.29694 -0.00685,72.65173 -0.00341,108.95449l0.00685,35.05c0,6.00299 0.49975,12.53311 -0.36282,18.46628c-0.74619,5.12641 -3.16273,10.40342 -6.83544,14.09325c-3.11822,3.08398 -7.03055,5.25065 -11.29885,6.25696c-7.38995,1.77645 -15.995,0.9721 -23.54583,0.95841l-30.89127,-0.0171l-87.26299,-0.00685l-24.29202,0.0308c-5.56214,0.00685 -11.4481,0.3731 -16.94142,-0.56477c-4.78071,-0.81463 -10.07312,-3.48446 -13.51619,-6.91074c-5.44713,-5.42179 -7.47722,-12.85281 -7.53406,-20.35706l0.02089,-109.17869l-0.01163,-33.31358c-0.00103,-6.20871 -0.51447,-12.91887 0.42306,-19.05503c0.79991,-5.23388 3.05422,-10.39761 6.82142,-14.17233c3.30546,-3.31435 7.48546,-5.61999 12.05221,-6.64821c6.98812,-1.59403 15.23925,-0.77355 22.43374,-0.76774z" id="Path 1" fill="#02363f" stroke="none" stroke-linecap="butt" stroke-linejoin="miter"/><path d="M1226.11661,423.44792c1.06108,0.7099 2.19747,2.1256 2.27963,3.44544c0.26014,4.13856 -6.92786,25.95207 -8.43734,31.07435l-16.64536,56.42912c-5.23356,17.76974 -9.95195,35.83383 -15.71263,53.42386c-0.42376,1.29419 -0.86497,3.03914 -1.82027,4.03451c-1.46395,1.52556 -3.63815,1.61422 -5.60938,1.8011c-2.38744,0.02671 -5.30884,0.17081 -7.51522,-0.81498c-1.44617,-0.64623 -2.12525,-1.62174 -2.65068,-3.06688c0.19271,-1.9363 0.48775,-3.82265 0.95874,-5.7117c1.52386,-6.11321 3.51426,-12.17097 5.28454,-18.22327l9.74281,-33.44501c2.60686,-8.94665 24.19174,-85.47031 26.22489,-88.11755c1.58477,-2.06774 3.94998,-2.14167 6.33229,-2.3272c2.52949,0.02465 5.38077,0.03529 7.56798,1.49821z" id="Path 1" fill="#07c6bc" stroke="none" stroke-linecap="butt" stroke-linejoin="miter"/><path d="M1160.63535,443.28507c2.45932,-0.14684 4.67084,0.66712 6.46063,2.36176c1.71965,1.62826 2.86562,3.80176 2.88137,6.20186c0.0178,1.49203 -0.39945,2.957 -1.20075,4.21558c-2.78414,4.3104 -7.60047,8.33566 -11.23894,11.99264c-8.54961,8.59307 -17.34807,16.97289 -25.68853,25.76757l24.06268,24.22523c3.95682,3.97803 8.97335,8.13681 12.13164,12.72958c0.8386,1.21923 1.38387,2.72766 1.47252,4.20771c0.12803,2.14032 -0.675,4.21934 -2.10882,5.79797c-2.14852,2.36552 -4.66705,3.1076 -7.76509,3.23596c-0.1174,-0.03115 -0.23514,-0.06092 -0.35221,-0.09309c-1.42013,-0.39158 -2.60616,-0.89165 -3.74426,-1.84868c-4.93131,-4.14712 -9.38614,-9.49224 -13.95191,-14.1001c-5.13086,-5.1781 -27.31885,-26.24813 -29.67789,-30.65573c-0.85436,-1.59676 -1.09087,-3.42252 -0.5189,-5.15756c0.51308,-1.555 1.55979,-2.9392 2.62396,-4.16116c7.32695,-8.41303 15.79374,-16.18188 23.67624,-24.09755c6.13273,-6.15908 12.07652,-12.90279 18.57071,-18.63436c0.86905,-0.76706 1.79187,-1.31608 2.82693,-1.82711c0.51068,-0.07737 1.02513,-0.13075 1.54062,-0.16052z" id="Path 1" fill="#07c6bc" stroke="none" stroke-linecap="butt" stroke-linejoin="miter"/><path d="M1243.51503,443.08621c1.65665,0.12289 3.10452,0.74276 4.40179,1.76722c2.63216,2.08417 4.98368,4.74612 7.36598,7.12842l13.43471,13.5271l14.64641,14.69123c2.55344,2.56201 5.32597,5.08669 7.67061,7.838c1.58477,1.85826 2.6356,4.10879 2.40285,6.60029c-0.17114,1.79699 -1.83807,3.78739 -2.99157,5.16611c-2.30359,2.7554 -4.97683,5.25168 -7.47552,7.82772c-5.84623,6.02524 -11.80885,11.89508 -17.72355,17.84676c-5.65799,5.69289 -11.09348,12.48315 -17.3402,17.44763c-1.19801,0.53533 -2.35492,0.98339 -3.67957,1.08024c-2.14271,0.15642 -4.08689,-0.59865 -5.70248,-1.98731c-1.91679,-1.64639 -3.3681,-4.2457 -3.47421,-6.80019c-0.07188,-1.80075 0.67772,-3.20584 1.69089,-4.63866c2.8889,-4.0862 6.97236,-7.70621 10.47737,-11.27488c8.40996,-8.55748 17.15193,-16.80005 25.30517,-25.60669c-7.84177,-8.68754 -16.40232,-16.82947 -24.67194,-25.11482c-3.41944,-3.42457 -7.06479,-6.78512 -10.21039,-10.4599c-1.10558,-1.2911 -2.40285,-2.8355 -2.81702,-4.50652c-0.49975,-2.03421 0.00341,-4.05573 1.08847,-5.81029c1.62244,-2.61573 3.84043,-4.06839 6.79094,-4.73448c0.35597,-0.00206 0.48265,-0.01129 0.81126,0.01302z" id="Path 1" fill="#07c6bc" stroke="none" stroke-linecap="butt" stroke-linejoin="miter"/><path d="M1222.70403,557.53095c3.9089,-0.01678 7.92391,-0.23276 11.80544,0.24883c0.32861,0.21051 0.65378,0.43128 0.96867,0.66198c2.13245,1.56835 3.19353,4.09442 3.5016,6.67216c0.29437,2.44289 -0.07531,5.03706 -1.64981,7.00042c-1.41708,1.76449 -3.02924,2.00544 -5.17878,2.28031c-6.9929,0.06265 -21.45446,0.8523 -27.61561,-0.22044c-1.21512,-0.21119 -2.23512,-0.5326 -3.18668,-1.33424c-1.34176,-1.13263 -1.93733,-2.62396 -2.10506,-4.34155c-0.29779,-3.03059 -0.25329,-6.64342 1.82438,-9.04933c1.42048,-1.64604 3.17984,-1.76037 5.22671,-1.9363z" id="Path 1" fill="#07c6bc" stroke="none" stroke-linecap="butt" stroke-linejoin="miter"/><path d="M955.58502,656.93846c2.31043,9.46077 4.00372,19.14744 5.96295,28.69034c1.87812,9.14585 4.07559,18.28488 5.57651,27.49236l8.80494,-36.85043c1.52248,-6.44523 2.87521,-12.98287 4.69855,-19.34938l14.63818,0.02395c4.61742,18.46628 8.31651,37.26801 13.38199,55.61108c0.85606,-8.36887 3.352,-16.93628 5.08122,-25.18193c2.11464,-10.08029 3.73914,-20.45153 6.39731,-30.3915c3.33522,-0.09926 13.97689,-0.9002 16.4013,0.3902c0.95429,3.06003 -3.08296,15.91969 -4.05882,19.70878c-2.76157,12.43523 -6.10878,24.78486 -9.14518,37.15847c-2.09239,8.52633 -3.72989,17.59003 -6.63042,25.86648c-5.45946,0.11295 -10.93637,0.02739 -16.39754,0.03423c-1.63203,-4.95972 -2.6339,-10.32332 -3.86679,-15.40969c-2.94399,-12.15113 -5.62581,-24.37412 -8.71391,-36.48759c-1.14495,7.08531 -3.35952,14.22537 -5.08978,21.21142c-2.52984,10.21378 -4.81904,20.51315 -7.54091,30.6756c-5.455,0.04449 -10.91035,0.04449 -16.36535,0.00685c-1.33559,-3.45366 -2.01161,-7.31463 -2.8841,-10.91548l-4.66194,-19.20219l-8.43014,-34.58792c-1.22538,-5.03503 -4.07524,-13.44153 -3.93731,-18.43548c5.58884,-0.18827 11.18801,-0.09584 16.77924,-0.05817z" id="Path 1" fill="#07c6bc" stroke="none" stroke-linecap="butt" stroke-linejoin="miter"/><path d="M1123.96456,684.96474c0.00547,-8.48867 -0.39467,-17.1519 0.0575,-25.60977c0.05648,-1.06108 0.28477,-1.55739 1.05732,-2.25565c3.40985,-0.41759 11.22594,-0.88651 14.26579,0.43812c1.09017,3.7138 0.42614,25.555 0.42787,30.98023c0.00547,15.91625 0.43401,31.95917 0.09003,47.85832c-0.02089,0.9721 -0.01986,2.22142 -0.53295,3.08057c-0.27416,0.45866 -0.84955,0.48946 -1.32669,0.65034c-4.60134,0.07531 -9.21228,0.01369 -13.81465,0.01369c-4.22073,-6.82858 -7.62406,-14.42733 -11.32726,-21.57082c-5.63745,-10.87097 -11.585,-21.68378 -16.6409,-32.83884l0.01507,37.13452c0.00206,3.71037 0.63427,12.69878 -0.31183,15.94364c-0.191,0.65378 -0.37754,0.73591 -1.01248,1.01659c-1.71519,0.75988 -11.45288,0.58531 -13.09071,-0.14719c-0.51103,-0.22591 -0.68389,-0.35256 -0.8208,-0.91733c-0.83209,-3.42969 -0.20299,-20.34202 -0.20469,-25.3154l-0.01096,-35.84753c0.00068,-6.07213 -0.24781,-12.27435 0.05613,-18.33279c0.04519,-0.90364 0.21016,-1.4821 0.64009,-2.26935c5.09252,-0.1027 10.18644,-0.11295 15.27929,-0.02739c3.58579,5.81884 6.51882,12.25724 9.68804,18.32937c6.02148,11.40151 11.92043,22.86807 17.69651,34.39622c-0.64417,-8.12242 -0.18521,-16.55288 -0.17972,-24.70955z" id="Path 1" fill="#07c6bc" stroke="none" stroke-linecap="butt" stroke-linejoin="miter"/><path d="M1441.18153,656.87341c5.19248,-0.01369 13.62639,-0.71537 18.54503,0.31148c0.57503,0.46892 0.87966,0.64008 1.06452,1.39653c0.53738,2.17693 0.47236,10.20009 -0.55792,12.17508c-2.49869,1.64298 -27.72171,0.84202 -32.60612,0.82832c0.16773,6.37335 0.03423,12.7775 0.02739,19.15085c9.05004,-0.10611 18.22329,-0.30463 27.26305,0.10954c0.09241,4.15193 0.84545,9.5429 -0.35256,13.53054c-2.49869,1.7525 -22.58058,0.88994 -26.91734,0.87966l0.05478,8.36887l-0.02395,12.03133c5.15824,-0.04108 29.75831,-0.7325 32.82178,0.53398c0.15745,0.30463 0.22248,0.3902 0.31833,0.69827c0.6435,2.05372 0.45867,10.83676 -0.46208,12.68167c-1.05424,0.4929 -2.18378,0.55108 -3.33044,0.59216c-5.41154,0.19852 -43.2033,0.45866 -45.77387,-0.42787c-0.03765,-0.15744 -0.07872,-0.31491 -0.11295,-0.47236c-0.80094,-3.58031 -0.3902,-8.00946 -0.3902,-11.67193l0.01711,-18.50395l-0.01711,-33.23247c0,-5.53818 -0.23616,-11.19273 0.04108,-16.71378c0.04449,-0.8694 0.09241,-1.39653 0.56818,-2.15298c9.90917,-0.34571 19.90044,-0.08556 29.82329,-0.11294z" id="Path 1" fill="#f75818" stroke="none" stroke-linecap="butt" stroke-linejoin="miter"/><path d="M1240.70826,660.82681c5.61691,3.8781 9.92285,10.56634 11.0216,17.32648c0.23616,1.45128 0.21907,2.61506 -0.69142,3.83702c-2.22142,1.40679 -11.6959,0.65034 -14.78673,0.6127c-0.91733,-3.19009 -1.74565,-6.71563 -4.11085,-9.17667c-2.17693,-2.25909 -5.23012,-2.98131 -8.27305,-3.0258c-3.18668,-0.04793 -6.33912,0.8523 -8.60506,3.18324c-1.72511,1.77989 -2.72802,4.12796 -3.27225,6.5171c-1.34861,5.92838 -0.84886,22.90915 -0.68457,29.89861c0.10954,4.72696 0.64009,10.40548 4.37441,13.77355c2.51923,2.26935 6.20907,3.08398 9.5224,2.86835c9.2828,-0.60242 8.37916,-8.59477 11.38101,-11.535c0.41758,-0.40733 1.35202,-0.29094 1.92023,-0.32517c4.37441,-0.03423 8.75225,-0.00341 13.12666,0.09242c0.12665,6.03105 -1.69089,11.51446 -5.36362,16.32358c-4.37785,5.73327 -10.71012,8.98841 -17.78517,9.92969c-8.09848,1.07477 -17.36074,-0.25329 -23.97026,-5.34992c-5.80859,-4.48051 -8.72144,-10.98051 -9.57374,-18.14796c-0.60242,-5.05213 -0.2567,-10.42258 -0.26014,-15.51579c-0.00685,-8.23196 -0.85025,-17.35727 0.82832,-25.39756c0.83176,-3.9979 2.40969,-7.73565 4.95629,-10.94971c5.09322,-6.42469 12.31544,-8.81384 20.19827,-9.70037c6.95867,-0.60242 14.22883,0.74621 20.04767,4.76121z" id="Path 1" fill="#f75818" stroke="none" stroke-linecap="butt" stroke-linejoin="miter"/><path d="M1064.54309,657.42789c0.88069,3.99446 0.50659,8.52974 0.51138,12.61662l0.01232,18.24037l-0.00411,32.14057c-0.00341,5.65113 0.19512,11.39125 -0.06743,17.03554c-0.04108,0.8831 -0.17731,1.54028 -0.51241,2.35492c-3.14046,0.56134 -12.73679,0.97551 -15.52607,-0.38335c-0.81669,-2.6219 -0.94198,-78.95492 -0.01163,-82.45307c4.06875,-0.06846 12.07823,-0.94126 15.59795,0.4484z" id="Path 1" fill="#07c6bc" stroke="none" stroke-linecap="butt" stroke-linejoin="miter"/><path d="M1204.16585,770.4128c2.16324,-0.07188 4.32648,-0.04449 6.48632,-0.03764c1.5574,8.52974 3.84043,17.67903 6.36308,25.96233c2.22486,-8.59821 4.49762,-17.21009 6.41785,-25.87676c2.13245,-0.11637 4.24777,-0.07188 6.38021,-0.02054c1.85862,8.7933 4.35387,17.45997 6.43839,26.20193c2.58083,-8.54344 4.35046,-17.56949 6.40075,-26.2704c2.38915,-0.07531 4.77146,0 7.1572,0.05818c-0.41758,2.27278 -1.09873,4.51816 -1.70117,6.75329c-2.32412,9.67298 -5.1343,19.45207 -8.00947,28.97787l-7.20169,-0.0171c-2.6356,-7.6706 -4.06293,-15.94364 -6.29805,-23.76486c-2.55344,7.7596 -3.87467,15.95392 -6.34256,23.76486l-7.29754,0.02054c-2.09137,-6.921 -3.88151,-13.96523 -5.76409,-20.94443c-1.27329,-4.72011 -2.81702,-9.5121 -3.67614,-14.32463z" id="Path 1" fill="#07c6bc" stroke="none" stroke-linecap="butt" stroke-linejoin="miter"/><path d="M1360.12488,770.41965c7.37283,-0.21565 14.87916,-0.22247 22.25199,0.02739l-0.01369,6.23986c-5.31569,0.17798 -10.67589,0.04108 -15.99843,0.04449c-0.02395,2.65614 0.02739,5.31912 0.04449,7.97525c4.52501,-0.0171 9.05004,-0.08216 13.57164,0.09585l-0.01369,6.37676c-4.32307,-0.03764 -8.85493,-0.32517 -13.15062,0.09242c-0.62296,0.7633 -0.44838,1.22881 -0.46892,2.17693l0.01026,6.1269c5.41154,-0.05477 10.82308,-0.05818 16.23803,-0.00341c0.07188,2.17009 -0.00685,4.36415 -0.02739,6.53764c-7.66379,0.1506 -15.46104,0.26014 -23.11455,-0.089c-0.18827,-11.01131 -0.52369,-22.35463 -0.04108,-33.35227c0.04793,-1.05767 -0.07188,-1.53003 0.71196,-2.24881z" id="Path 1" fill="#07c6bc" stroke="none" stroke-linecap="butt" stroke-linejoin="miter"/><path d="M1042.80829,771.46021c3.36261,1.78673 4.75914,4.50446 5.812,7.97525l-6.04955,0.10611c-1.40165,-1.77304 -2.92895,-3.22432 -5.28181,-3.44682c-1.88121,-0.17798 -4.34291,0.14719 -5.79046,1.49236c-0.83414,0.77699 -1.44582,2.10506 -1.31814,3.25855c0.42376,3.83017 11.59972,3.85412 15.42989,6.66429c1.98594,1.45813 3.21747,3.54608 3.58614,5.97631c0.5189,3.42628 -0.23857,5.70247 -2.35663,8.35517c-2.62396,3.28935 -5.76992,4.14508 -9.77088,4.62426c-3.13293,0.10611 -6.04373,-0.45182 -8.76216,-2.09477c-1.78706,-1.07821 -5.12674,-3.83358 -5.40299,-6.01395c-0.11295,-0.89335 0.24918,-1.22881 0.73865,-1.89625c1.62962,-0.54082 3.94827,-0.23617 5.67509,-0.22591c0.64863,0.87966 1.34517,1.7696 2.17693,2.48156c1.75867,1.50605 4.15226,1.82781 6.38362,1.50949c1.51769,-0.21906 3.18941,-0.9002 4.07319,-2.22142c0.65035,-0.9721 0.81977,-2.27278 0.4946,-3.39205c-1.10251,-3.78909 -11.00517,-3.93628 -14.62998,-6.21591c-2.0229,-1.2733 -3.5738,-3.10452 -4.02494,-5.50051c-0.49393,-2.61849 0.05989,-6.1098 1.61525,-8.31068c2.01435,-2.84781 5.33144,-3.96366 8.60437,-4.59347c3.07578,-0.18142 6.02016,-0.00343 8.79781,1.46839z" id="Path 1" fill="#07c6bc" stroke="none" stroke-linecap="butt" stroke-linejoin="miter"/><path d="M1185.20632,726.82964c0.28785,0.91733 0.37413,1.67378 0.39739,2.63901c0.06435,2.67324 0.77664,8.41679 -1.05491,10.33358c-5.28525,0.54423 -28.82353,0.97895 -33.30748,-0.14719c-0.36076,-0.32176 -0.64452,-0.60585 -0.82147,-1.06793c-1.09634,-2.85466 -0.91425,-9.70378 0.3262,-12.47287c4.26898,-0.1506 32.87344,-0.65375 34.46027,0.7154z" id="Path 1" fill="#07c6bc" stroke="none" stroke-linecap="butt" stroke-linejoin="miter"/><path d="M1140.69823,770.42652l0.01437,6.31858h-15.81839l-0.00582,8.89256c4.59312,-0.02739 9.18592,-0.02395 13.77871,0.0171c0.03697,2.11531 0.05374,4.19298 -0.10405,6.30489c-4.55206,0.19511 -9.15442,0.09926 -13.71265,0.13006l-0.03732,14.01315c-2.35322,0.05134 -4.67151,0.12321 -7.01618,-0.13349l-0.04519,-21.83779c-0.0065,-4.25804 -0.17184,-8.58452 0.14616,-12.82884c0.5261,-0.79068 0.66368,-0.67429 1.6067,-0.87284c7.02097,-0.2396 14.17063,-0.19849 21.19366,-0.00338z" id="Path 1" fill="#07c6bc" stroke="none" stroke-linecap="butt" stroke-linejoin="miter"/><path d="M1186.20783,770.40596l-0.00993,6.27409c-3.46701,0.09585 -6.95421,0.03764 -10.42362,0.04449l-0.01302,19.41784c0.06367,3.30304 0.06949,6.60611 0.01746,9.90915c-2.33576,0.14034 -4.65509,0.07531 -6.99188,0.01369c-0.2372,-9.77566 -0.02671,-19.60267 -0.02465,-29.38517c-3.44956,0.02739 -6.89911,0.0308 -10.34867,0.01026c-0.07428,-1.70801 -0.5877,-4.96997 0.5634,-6.29463c9.04319,-0.2088 18.18669,-0.13689 27.23091,0.01028z" id="Path 1" fill="#07c6bc" stroke="none" stroke-linecap="butt" stroke-linejoin="miter"/><path d="" id="Path 1" fill="none" stroke="#000000" stroke-linecap="round" stroke-linejoin="round"/></g></g></g><g id="Group 1" fill="none" stroke="none" stroke-linecap="butt" stroke-linejoin="miter" font-family="sans-serif" font-weight="normal" font-size="12" text-anchor="start"/></g></g></g></g><path d="M1313.62879,662.07272c5.94549,4.7646 9.08084,11.89099 9.88522,19.35622c0.71537,6.6506 0.72222,32.59923 -0.62639,38.61662c-0.90705,4.21011 -2.78963,8.14639 -5.49026,11.49736c-5.17878,6.31517 -12.62692,8.9713 -20.53372,9.80648c-8.06425,0.64008 -16.3065,-1.08505 -22.61824,-6.35622c-6.17141,-5.15139 -9.32044,-12.47972 -10.01527,-20.37966c-0.42787,-4.86387 -0.13349,-9.86466 -0.17457,-14.74565c-0.09926,-12.07923 -1.41023,-24.90125 6.97578,-34.79329c5.07268,-5.98656 12.24013,-8.31412 19.83545,-8.99526c7.69799,-0.69142 16.62484,1.07476 22.762,5.9934zM1283.23726,675.55193c-1.39995,2.18378 -2.19747,4.96656 -2.56029,7.51659c-0.71881,5.09321 -0.69142,28.51577 0.44838,33.27696c0.84545,3.51184 2.75199,6.85596 5.94893,8.70088c2.66299,1.53685 5.80175,1.81068 8.81729,1.59162c3.49131,-0.64693 6.76697,-2.01949 8.78646,-5.1069c1.37256,-2.09821 2.1598,-4.62085 2.51921,-7.09216c0.68117,-4.68588 0.56137,-29.43653 -0.3765,-33.52341c-0.77699,-3.36123 -2.39259,-6.63691 -5.37731,-8.54685c-2.89915,-1.85517 -6.18168,-2.10846 -9.52581,-1.95102c-3.42285,0.74619 -6.70195,2.05372 -8.68036,5.13429z" id="CompoundPath 1" fill="#f75818" stroke="none" stroke-width="1" stroke-linecap="butt" stroke-linejoin="miter"/><path d="M1357.19491,656.82892c11.50763,-0.05134 22.89889,-0.28068 31.63746,8.5229c6.00027,6.04475 7.89995,14.8894 7.92734,23.13506l-0.02054,14.71827c0.00341,10.79568 -0.16773,20.62952 -8.22854,28.74852c-2.22827,2.00579 -4.58662,3.67273 -7.30438,4.95628c-2.70063,1.27673 -5.80174,2.33097 -8.7591,2.75881c-4.47711,0.64693 -30.06294,1.21511 -33.69118,-0.089c-0.84545,-2.85122 -1.1227,-78.8796 -0.09926,-82.59682c6.15087,-0.27383 12.38049,-0.12664 18.5382,-0.15402zM1354.99745,725.71038c7.23248,0.02054 15.574,1.13639 21.32097,-4.19983c5.06583,-6.05162 4.01503,-15.34466 4.01844,-22.71747c0,-3.93972 0.19852,-8.01633 -0.16773,-11.93892c-0.42101,-4.55239 -1.98526,-9.65585 -5.74013,-12.55159c-5.08979,-3.92944 -13.41417,-2.63219 -19.43498,-2.79648z" id="CompoundPath 1" fill="#f75818" stroke="none" stroke-width="1" stroke-linecap="butt" stroke-linejoin="miter"/></g></g></g></g></g><path d="M1091.31325,772.12422c2.87862,1.86204 4.63079,4.82963 5.31775,8.14296c1.16173,5.61006 1.20964,16.19009 -2.05817,20.9273c-2.23001,3.2346 -5.51113,4.4942 -9.21057,5.21642c-3.63371,0.34227 -7.48031,0.01026 -10.63482,-1.98526c-3.14458,-1.98867 -4.95014,-5.20957 -5.64018,-8.80358c-1.02891,-5.3602 -0.95565,-15.70747 2.21288,-20.27696c2.29709,-3.31332 5.74115,-4.70642 9.57817,-5.34307c3.58749,-0.31148 7.35677,0.13352 10.43494,2.12219zM1080.94131,776.47125c-1.47834,0.50315 -3.2548,1.01657 -4.0044,2.5329c-1.87128,3.78911 -2.23614,13.16429 -0.59216,17.08346c0.67635,1.61216 2.01127,2.9813 3.67649,3.56318c1.4975,0.52713 3.23561,0.43128 4.79473,0.31491c1.76791,-0.63665 3.5016,-1.18429 4.35696,-2.99841c1.39548,-2.95733 1.39104,-13.68455 0.22453,-16.77196c-0.58051,-1.53685 -1.65118,-2.65955 -3.19215,-3.25171c-1.64708,-0.6298 -3.52861,-0.59902 -5.264,-0.47237z" id="CompoundPath 1" fill="#07c6bc" stroke="none" stroke-width="1" stroke-linecap="butt" stroke-linejoin="miter"/><path d="M1282.95315,770.38885c4.06635,11.82938 8.5503,23.6519 12.11349,35.64216c-2.35492,0.17114 -4.75435,0.10954 -7.11953,0.13006c-0.68798,-1.97497 -1.02,-5.44918 -2.38915,-6.96892c-0.73591,-0.81807 -1.376,-0.60585 -2.38574,-0.62296l-10.29595,0.00341c-0.7325,2.53633 -1.51975,5.05554 -2.3652,7.55767c-2.41995,0.05477 -4.85017,0.01026 -7.27015,0.00685c1.94761,-6.31858 4.28884,-12.56872 6.44867,-18.81884c1.95446,-5.65798 3.75146,-11.45287 5.96947,-17.00131zM1279.15722,779.07604c-1.47183,4.45656 -2.8889,8.93023 -4.24777,13.42443l4.92549,0.01026l3.73091,-0.03764c-0.7325,-2.50894 -2.89914,-11.79858 -4.40863,-13.39705z" id="CompoundPath 1" fill="#07c6bc" stroke="none" stroke-width="1" stroke-linecap="butt" stroke-linejoin="miter"/><path d="M1314.93976,770.42649c5.17194,-0.07531 11.60348,-0.77699 16.58031,0.58872c2.79648,0.76673 5.11032,2.47815 6.44867,5.07267c1.46841,2.85122 1.66009,6.62321 0.67772,9.65929c-1.02,3.16273 -2.77935,4.72352 -5.67853,6.1577c2.41654,4.6277 5.06924,9.2554 7.1127,14.05764c-1.73881,0.12665 -6.49316,0.85915 -7.88626,-0.22247c-1.81412,-4.28883 -4.03898,-8.47841 -6.06529,-12.67824l-5.5416,0.09926c-0.08215,4.2854 -0.02395,8.58108 -0.0308,12.8665c-2.33781,0.11295 -4.63112,0.09585 -6.96893,0c-0.07872,-4.34017 -0.65719,-33.1777 0.43128,-35.30329zM1320.63199,787.02051c3.15586,0.04108 7.60558,0.65377 10.29936,-1.21168c1.08503,-1.44444 1.85518,-3.56319 1.5437,-5.38415c-0.20194,-1.17747 -1.14666,-2.064 -2.14271,-2.62534c-2.82043,-1.59506 -6.60953,-1.13296 -9.75172,-1.10216z" id="CompoundPath 1" fill="#07c6bc" stroke="none" stroke-width="1" stroke-linecap="butt" stroke-linejoin="miter"/></g></g></g></g></g></g></g></g></g></svg>